<svg width="80" height="80" viewBox="0 0 80 80" fill="none" xmlns="http://www.w3.org/2000/svg">
<path opacity="0.3" d="M80 40C80 62.0914 62.0914 80 40 80C17.9086 80 0 62.0914 0 40C0 17.9086 17.9086 0 40 0C62.0914 0 80 17.9086 80 40ZM10.9071 40C10.9071 56.0675 23.9325 69.0929 40 69.0929C56.0675 69.0929 69.0929 56.0675 69.0929 40C69.0929 23.9325 56.0675 10.9071 40 10.9071C23.9325 10.9071 10.9071 23.9325 10.9071 40Z" fill="#2F2E30"/>
<circle cx="40" cy="40" r="29" fill="black"/>
<path d="M20 48V30.5C20 26.3594 23.3594 23 27.5 23H52.5C56.6406 23 60 26.3594 60 30.5V48C60 52.1406 56.6406 55.5 52.5 55.5H43.125C42.7188 55.5 42.3281 55.6328 42 55.875L33 62.625C32.6719 62.8672 32.2812 63 31.875 63C30.8359 63 30 62.1641 30 61.125V55.5H27.5C23.3594 55.5 20 52.1406 20 48Z" fill="white"/>
</svg>
