<svg width="80" height="80" viewBox="0 0 80 80" fill="none" xmlns="http://www.w3.org/2000/svg">
<path opacity="0.3" d="M80 40C80 62.0914 62.0914 80 40 80C17.9086 80 0 62.0914 0 40C0 17.9086 17.9086 0 40 0C62.0914 0 80 17.9086 80 40ZM10.9071 40C10.9071 56.0675 23.9325 69.0929 40 69.0929C56.0675 69.0929 69.0929 56.0675 69.0929 40C69.0929 23.9325 56.0675 10.9071 40 10.9071C23.9325 10.9071 10.9071 23.9325 10.9071 40Z" fill="#2F2E30"/>
<circle cx="40" cy="40" r="29" fill="black"/>
<path d="M40 20C43.5875 20 46.5 24.0172 46.5 28.9655C46.5 33.9138 43.5875 37.931 40 37.931C36.4125 37.931 33.5 33.9138 33.5 28.9655C33.5 24.0172 36.4125 20 40 20ZM26 26.2069C28.4875 26.2069 30.5 28.9828 30.5 32.4138C30.5 35.8448 28.4875 38.6207 26 38.6207C23.5125 38.6207 21.5 35.8448 21.5 32.4138C21.5 28.9828 23.5125 26.2069 26 26.2069ZM20 54.4828C20 48.3879 23.5813 43.4483 28 43.4483C28.8 43.4483 29.575 43.6121 30.3062 43.9138C28.25 47.0862 27 51.2759 27 55.8621V57.2414C27 58.2241 27.15 59.1552 27.4187 60H22C20.8937 60 20 58.7672 20 57.2414V54.4828ZM52.5812 60C52.85 59.1552 53 58.2241 53 57.2414V55.8621C53 51.2759 51.75 47.0862 49.6938 43.9138C50.425 43.6121 51.2 43.4483 52 43.4483C56.4187 43.4483 60 48.3879 60 54.4828V57.2414C60 58.7672 59.1063 60 58 60H52.5812ZM49.5 32.4138C49.5 28.9828 51.5125 26.2069 54 26.2069C56.4875 26.2069 58.5 28.9828 58.5 32.4138C58.5 35.8448 56.4875 38.6207 54 38.6207C51.5125 38.6207 49.5 35.8448 49.5 32.4138ZM30 55.8621C30 48.2414 34.475 42.069 40 42.069C45.525 42.069 50 48.2414 50 55.8621V57.2414C50 58.7672 49.1063 60 48 60H32C30.8937 60 30 58.7672 30 57.2414V55.8621Z" fill="white"/>
</svg>
